<svg xmlns="http://www.w3.org/2000/svg" width="582" height="311" fill="none" viewBox="0 0 582 311"><path fill="#fff" fill-rule="evenodd" d="M333.981 0.281321C331.875 0.769321 330.733 17.1903 331.252 39.5153L331.614 55.0583L322.614 54.9613C297.381 54.6903 293.079 54.7393 286.614 55.3723L279.614 56.0583L279.407 154.276C279.249 229.489 279.48 252.666 280.394 253.231C281.051 253.637 292.281 254.157 305.351 254.388L329.114 254.807V280.56C329.114 301.484 329.378 306.532 330.522 307.482C331.577 308.357 351.305 308.564 409.272 308.305C485.345 307.965 486.751 307.923 494.977 305.747C518.982 299.396 539.185 286.859 555.073 268.454C562.171 260.231 572.996 242.066 575.57 234.058C576.454 231.308 577.457 228.383 577.799 227.558C578.142 226.733 578.591 224.933 578.798 223.558C579.006 222.183 579.441 220.383 579.765 219.558C581.305 215.641 581.614 203.792 581.614 148.558C581.614 93.8733 581.327 82.7693 579.807 78.5583C579.51 77.7333 578.728 75.2583 578.072 73.0583C574.194 60.0713 565.53 45.4253 554.894 33.8773C551.44 30.1273 548.367 26.9383 548.066 26.7923C547.365 26.4523 537.165 18.8993 534.898 17.0423C532.335 14.9423 515.47 7.03032 508.614 4.71132C495.206 0.176321 494.417 0.137321 413.114 0.0173206C370.489 -0.0466794 334.879 0.0723205 333.981 0.281321ZM101.614 19.0973C83.8456 22.4203 64.0446 30.6473 49.3326 40.8173C26.0846 56.8893 5.81057 89.0633 2.05257 115.85C1.41857 120.365 0.697573 124.726 0.448573 125.543C-0.266427 127.891 -0.0774257 154.896 0.667574 156.838C1.03657 157.8 1.10557 159.481 0.820574 160.572C0.534574 161.663 0.649575 162.771 1.07558 163.035C1.50158 163.298 2.16957 165.661 2.55957 168.286C3.63357 175.511 3.64757 175.559 7.05057 184.091C12.9916 198.983 20.1536 211.082 28.6136 220.521C41.7996 235.231 51.7596 242.868 68.5876 251.172C82.6816 258.125 91.2316 260.423 110.614 262.463C119.931 263.444 132.656 263.317 136.114 262.209C136.939 261.945 141.889 260.967 147.114 260.037C153.56 258.888 159.829 256.885 166.614 253.806C177.344 248.935 190.982 241.262 194.146 238.313C196.068 236.523 196.092 236.914 196.352 273.281L196.614 310.058L218.867 310.327L241.121 310.596L240.867 164.827L240.614 19.0583H218.614H196.614L196.334 31.8683L196.053 44.6783L192.334 41.7733C179.31 31.6023 167.143 25.7323 149.114 20.9223C136.888 17.6603 113.998 16.7813 101.614 19.0973ZM456.864 88.2193L425.114 119.858V134.072V148.286L409.91 148.774L394.705 149.262L364.66 179.951C348.134 196.83 334.277 210.622 333.864 210.599C333.451 210.577 333.114 175.908 333.114 133.558V56.5583L410.864 56.5693L488.614 56.5803L456.864 88.2193ZM141.717 64.1473C167.762 71.5933 189.01 93.3973 195.683 119.524C198.139 129.138 198.311 131.093 197.802 143.524C197.423 152.771 196.611 159.205 195.237 163.835C193.018 171.311 186.326 184.511 184.364 185.281C183.677 185.551 183.114 186.2 183.114 186.724C183.114 188.698 176.364 196.003 169.736 201.202C162.186 207.125 146.619 215.284 141.114 216.204C124.282 219.015 114.216 218.976 99.6856 216.045C91.0616 214.305 70.8206 202.404 64.8536 195.565C53.6546 182.728 49.0986 174.501 45.5506 160.705C43.1396 151.332 42.9336 149.11 43.3706 137.205C43.9776 120.698 46.7826 110.902 54.3706 98.7913C59.0816 91.2723 68.3646 80.9593 75.1136 75.7463C80.0206 71.9563 93.3776 65.4493 99.4446 63.8943C113.61 60.2623 128.437 60.3513 141.717 64.1473ZM528.397 103.308C528.694 105.921 528.622 129.883 528.237 156.558L527.536 205.058L524.455 212.749C520.626 222.308 513.83 231.955 506.904 237.668C503.994 240.067 501.389 242.315 501.114 242.663C499.955 244.129 489.999 248.545 484.043 250.234C478.199 251.892 472.942 252.058 426.27 252.058C398.032 252.058 374.768 251.802 374.574 251.49C374.38 251.178 385.777 239.478 399.901 225.49C414.024 211.502 427.5 197.905 429.847 195.275L434.114 190.491L434.128 177.275C434.148 157.811 432.541 159.558 450.414 159.558H465.481L482.402 142.808C491.709 133.595 505.464 119.882 512.969 112.334C520.474 104.786 526.894 98.5983 527.235 98.5843C527.577 98.5703 528.099 100.696 528.397 103.308Z" clip-rule="evenodd"/></svg>